<?xml version="1.0" encoding="UTF-8"?><svg id="a" xmlns="http://www.w3.org/2000/svg" viewBox="0 0 972 960"><defs><style>.b{fill:#ffc831;}.c{stroke-width:4.25px;}.c,.d,.e{fill:none;}.c,.d,.e,.f{stroke:#000;stroke-miterlimit:10;}.g{fill:#42210b;}.h{fill:#d9b8b8;}.d{stroke-width:1.79px;}.e{stroke-width:2.65px;}.i{fill:#f2e3d5;}.f{stroke-width:2.71px;}</style></defs><path class="b" d="M955.5,480v2.31c-.03,2.81-.06,5.65-.12,8.43,0,.77-.03,1.54-.06,2.31-.03,1.09-.06,2.19-.12,3.28-.24,7.1-.62,14.14-1.18,21.16-.62,7.81-1.42,15.56-2.4,23.26-29.8,231.14-227.35,409.75-466.62,409.75S49.86,773.4,18.79,543.65c-1.69-12.37-2.9-24.89-3.58-37.55-.06-.89-.09-1.78-.12-2.66-.38-7.75-.59-15.56-.59-23.44,0-20.89,1.36-41.46,3.99-61.61,.15-1.18,.33-2.37,.47-3.55,.98-6.92,2.07-13.79,3.34-20.6,3.58-19.56,8.4-38.71,14.35-57.32,5.71-17.9,12.46-35.36,20.18-52.26,3.28-7.19,6.75-14.29,10.39-21.28,2.01-3.88,4.08-7.72,6.21-11.54,5.27-9.53,10.89-18.85,16.81-27.96,12.07-18.58,25.45-36.28,39.95-52.91,3.52-4.02,7.1-7.99,10.77-11.9,.03-.09,.09-.15,.18-.21,5.03-5.39,10.18-10.68,15.48-15.83,2.25-2.19,4.5-4.35,6.81-6.48,5.68-5.36,11.54-10.56,17.49-15.59,13.49-11.45,27.64-22.13,42.37-32.02,9.38-6.3,18.97-12.25,28.82-17.84,.92-.53,1.83-1.07,2.75-1.57,10.65-5.98,21.54-11.57,32.7-16.72,25.86-11.98,52.97-21.66,81.11-28.82,4.26-1.09,8.55-2.1,12.84-3.08,24.8-5.56,50.31-9.17,76.4-10.65,2.54-.15,5.09-.27,7.63-.36,6.45-.3,12.93-.41,19.44-.41,1.75,0,3.49,0,5.21,.03,5.62,.06,11.19,.21,16.75,.5,10.56,.44,21.04,1.3,31.43,2.49,.5,.03,1.04,.09,1.57,.18,13.76,1.57,27.34,3.79,40.72,6.54,9.62,1.98,19.09,4.26,28.47,6.84,5.42,1.45,10.74,3.02,16.07,4.68,10.56,3.28,20.95,6.95,31.19,10.95,13.94,5.47,27.58,11.57,40.84,18.32,4.76,2.37,9.5,4.88,14.17,7.46,7.63,4.2,15.15,8.61,22.52,13.2,6.3,3.94,12.52,8.05,18.64,12.28,10.71,7.43,21.13,15.27,31.19,23.55,.12,.09,.21,.18,.33,.27,6.63,5.44,13.08,11.1,19.38,16.93,5.89,5.39,11.63,10.92,17.19,16.63,6.13,6.18,12.04,12.58,17.78,19.12,.15,.15,.27,.3,.39,.44,13.52,15.42,26.07,31.72,37.52,48.83,4.85,7.28,9.53,14.68,14,22.22,14.53,24.62,26.9,50.69,36.84,77.91,3.08,8.43,5.92,16.99,8.49,25.66,5.15,17.1,9.35,34.62,12.49,52.49,.3,1.51,.53,3.05,.8,4.56,1.66,9.71,2.99,19.53,3.99,29.47,.83,7.78,1.42,15.59,1.83,23.5v.12c.27,4.65,.44,9.32,.56,14,.09,3.79,.15,7.58,.15,11.36Z"/><g><circle class="h" cx="201.21" cy="483.7" r="33.82"/><circle class="h" cx="771.05" cy="483.7" r="33.82"/><path class="i" d="M770.19,480.12v1.4c-.02,1.7-.04,3.42-.07,5.1,0,.47-.02,.93-.04,1.4-.02,.66-.04,1.32-.07,1.99-.14,4.3-.38,8.56-.72,12.8-.38,4.73-.86,9.42-1.45,14.07-18.03,139.84-137.55,247.9-282.31,247.9s-263.26-107.15-282.06-246.14c-1.02-7.48-1.75-15.06-2.17-22.72-.04-.54-.05-1.07-.07-1.61-.23-4.69-.36-9.42-.36-14.18,0-12.64,.82-25.08,2.42-37.27,.09-.72,.2-1.43,.29-2.15,.59-4.19,1.25-8.34,2.02-12.46,2.17-11.83,5.08-23.42,8.68-34.68,3.46-10.83,7.54-21.39,12.21-31.62,1.99-4.35,4.08-8.65,6.28-12.87,1.22-2.35,2.47-4.67,3.76-6.98,3.19-5.76,6.59-11.4,10.17-16.92,7.3-11.24,15.4-21.95,24.17-32.01,2.13-2.43,4.3-4.83,6.52-7.2,.02-.05,.05-.09,.11-.13,3.04-3.26,6.16-6.46,9.36-9.58,1.36-1.32,2.72-2.63,4.12-3.92,3.44-3.24,6.98-6.39,10.58-9.43,8.16-6.93,16.72-13.39,25.64-19.37,5.68-3.81,11.48-7.41,17.44-10.8,.55-.32,1.11-.64,1.66-.95,6.44-3.62,13.03-7,19.78-10.11,15.65-7.25,32.05-13.1,49.07-17.44,2.58-.66,5.17-1.27,7.77-1.86,15-3.37,30.43-5.55,46.22-6.44,1.54-.09,3.08-.16,4.62-.21,3.9-.18,7.82-.25,11.76-.25,1.06,0,2.11,0,3.15,.02,3.4,.04,6.77,.13,10.13,.3,6.39,.27,12.73,.79,19.01,1.5,.3,.02,.63,.05,.95,.11,8.32,.95,16.54,2.29,24.63,3.96,5.82,1.2,11.55,2.58,17.22,4.14,3.28,.88,6.5,1.83,9.72,2.83,6.39,1.99,12.68,4.21,18.87,6.62,8.43,3.31,16.69,7,24.71,11.08,2.88,1.43,5.75,2.95,8.58,4.51,4.62,2.54,9.17,5.21,13.62,7.98,3.81,2.38,7.57,4.87,11.28,7.43,6.48,4.49,12.78,9.24,18.87,14.25,.07,.05,.13,.11,.2,.16,4.01,3.29,7.91,6.71,11.73,10.24,3.56,3.26,7.04,6.61,10.4,10.06,3.71,3.74,7.29,7.61,10.76,11.57,.09,.09,.16,.18,.23,.27,8.18,9.33,15.77,19.19,22.7,29.54,2.94,4.4,5.76,8.88,8.47,13.44,8.79,14.9,16.27,30.67,22.29,47.14,1.86,5.1,3.58,10.28,5.14,15.52,3.12,10.35,5.66,20.95,7.55,31.76,.18,.91,.32,1.84,.48,2.76,1,5.87,1.81,11.82,2.42,17.83,.5,4.71,.86,9.43,1.11,14.21v.07c.16,2.81,.27,5.64,.34,8.47,.05,2.29,.09,4.58,.09,6.87Z"/><circle cx="587.09" cy="458.29" r="18.1"/><path class="d" d="M558.92,415.44c4.46-2.36,14.28-6.81,27.47-6.58,13.13,.23,22.76,4.97,27.14,7.48"/><g><path class="g" d="M426.72,210.32c-.07,2.65-.39,5.23-.95,7.72-1.43,6.7-4.48,12.76-8.68,17.83-7.97,9.67-20.18,15.66-33.68,15.25-2.45-.07-4.85-.36-7.18-.84-7.57-1.52-14.39-5.08-19.87-10.08-2.58-2.35-4.85-4.98-6.79-7.88-.57-.9-1.15-1.83-1.65-2.76-1.45-2.56-2.61-5.28-3.49-8.11,.55-.32,1.11-.64,1.66-.95,6.45-3.62,13.03-7,19.78-10.11,15.65-7.25,32.05-13.1,49.07-17.44,2.58-.66,5.17-1.27,7.77-1.86,.61,1.32,1.18,2.69,1.66,4.1,1.66,4.73,2.49,9.83,2.33,15.13Z"/><path class="g" d="M357.46,251.24c-.11,3.71-.68,7.3-1.65,10.71-2.38,8.43-7.23,15.81-13.68,21.3-8,6.87-18.48,10.88-29.83,10.54-1.32-.04-2.63-.14-3.9-.3-11.6-1.36-21.77-7.25-28.73-15.79-.84-1-1.63-2.06-2.36-3.15,3.04-3.26,6.16-6.46,9.36-9.58,1.36-1.32,2.72-2.63,4.12-3.92,3.44-3.24,6.98-6.39,10.58-9.43,8.16-6.93,16.72-13.39,25.64-19.37,5.68-3.81,11.48-7.41,17.44-10.8,.55-.32,1.11-.64,1.66-.95,1.95,2.15,3.69,4.48,5.17,6.98,.61,.98,1.16,2.01,1.66,3.06,1.52,3.03,2.67,6.27,3.42,9.65,.82,3.54,1.2,7.25,1.09,11.05Z"/><path class="g" d="M342.13,283.25c.02,.52,.02,1.04,0,1.58-.55,18.28-15.81,32.65-34.09,32.12-.43-.02-.86-.04-1.29-.07-17.69-1.2-31.37-16.17-30.85-34.02,.04-1.04,.11-2.04,.23-3.04,.21-1.77,.55-3.47,1.06-5.14,0-.07,.02-.14,.05-.21,.02,.04,.04,.07,.05,.09,3.04-3.26,6.16-6.46,9.36-9.58,1.36-1.32,2.72-2.63,4.12-3.92,3.44-3.24,6.98-6.39,10.58-9.43,2.76-.66,5.66-.97,8.63-.88,17.76,.52,31.83,14.91,32.14,32.51Z"/><path class="g" d="M699.17,280.94c-.02,.09-.05,.16-.09,.25-3.67,9.72-13.21,16.51-24.19,16.18-2.83-.09-5.51-.63-8.02-1.58-7.16-2.67-12.75-8.5-15.09-15.75-.86-2.65-1.29-5.51-1.2-8.47,.3-10.2,6.66-18.8,15.52-22.43,.05-.04,.11-.07,.18-.07,4.01,3.29,7.91,6.71,11.73,10.24,3.56,3.26,7.04,6.61,10.4,10.06,3.71,3.74,7.29,7.61,10.76,11.57Z"/><path class="g" d="M635.94,227.24c-1.34,1.9-2.83,3.69-4.49,5.33-3.88,3.94-8.58,7.13-13.77,9.27-5.33,2.2-11.21,3.35-17.35,3.17-12.12-.36-22.88-5.8-30.33-14.23-4.55-5.17-7.86-11.46-9.42-18.4-.27-1.04-.47-2.11-.61-3.19h-.02c-.36-2.43-.5-4.92-.43-7.47,.05-1.92,.23-3.8,.56-5.64,.09-.63,.21-1.25,.36-1.88,3.28,.88,6.5,1.83,9.72,2.83,6.39,1.99,12.68,4.21,18.87,6.62,8.43,3.31,16.69,7,24.71,11.08,2.88,1.43,5.75,2.95,8.58,4.51,4.62,2.54,9.17,5.21,13.62,7.98Z"/><path class="g" d="M498.94,190.96c-.07,2.4-.34,4.74-.82,7.02-.55,2.9-1.43,5.69-2.58,8.34-2.27,5.33-5.64,10.1-9.81,14.02-7.82,7.38-18.48,11.76-30.09,11.42-4.21-.13-8.25-.86-12.05-2.13-6.93-2.29-13.03-6.34-17.81-11.6-5.03-5.53-8.61-12.39-10.13-19.98-.34-1.66-.57-3.37-.68-5.1,2.58-.66,5.17-1.27,7.77-1.86,15-3.37,30.43-5.55,46.22-6.44,1.54-.09,3.08-.16,4.62-.21,3.9-.18,7.82-.25,11.76-.25,1.06,0,2.11,0,3.15,.02,3.4,.04,6.77,.13,10.13,.3,.29,2.11,.39,4.28,.32,6.46Z"/><path class="g" d="M570.16,197.03c-.05,.2-.11,.38-.2,.55-1.7,4.6-4.19,8.83-7.29,12.5-.66,.79-1.36,1.56-2.09,2.29-4.1,4.21-9.09,7.55-14.66,9.72-5.14,2.04-10.78,3.08-16.65,2.9-7.79-.23-15-2.56-21.14-6.43-5.01-3.15-9.29-7.34-12.59-12.25-1.72-2.56-3.15-5.33-4.26-8.25-1.7-4.33-2.67-9.01-2.79-13.87,3.4,.04,6.77,.13,10.13,.3,6.39,.27,12.73,.79,19.01,1.5,.3,.02,.63,.05,.95,.11,8.32,.95,16.54,2.29,24.63,3.96,5.82,1.2,11.55,2.58,17.22,4.14,3.28,.88,6.5,1.83,9.72,2.83Z"/><path class="g" d="M688.41,269.38c-2.2,2.08-4.64,3.92-7.25,5.46-4.26,2.58-9.02,4.39-14.09,5.26-2.81,.54-5.73,.75-8.7,.66-2.24-.07-4.44-.3-6.59-.72-18.58-3.49-32.73-19.16-34.1-38.2-.13-1.43-.14-2.9-.11-4.37,.13-4.51,.97-8.83,2.4-12.85,.66-1.86,1.43-3.65,2.35-5.37,4.62,2.54,9.17,5.21,13.62,7.98,3.81,2.38,7.57,4.87,11.28,7.43,6.48,4.49,12.78,9.24,18.87,14.25,.07,.05,.13,.11,.2,.16,4.01,3.29,7.91,6.71,11.73,10.24,3.56,3.26,7.04,6.61,10.4,10.06Z"/><path class="g" d="M309.34,303.55c-.14,4.67-1.04,9.15-2.58,13.32-6.02,16.31-21.82,27.79-40.12,27.48-.2,.02-.41,0-.61,0-7.98-.23-15.38-2.67-21.63-6.73-.18-.11-.36-.23-.54-.36-2.77-1.86-5.3-4.03-7.52-6.46,3.19-5.76,6.59-11.4,10.17-16.92,7.3-11.24,15.4-21.95,24.17-32.01,2.13-2.43,4.3-4.83,6.52-7.2,0-.07,.02-.14,.05-.21,.02,.04,.04,.07,.05,.09,3.04-3.26,6.16-6.46,9.36-9.58,.82,.41,1.61,.86,2.38,1.32,9.79,5.93,16.92,15.72,19.35,27.19,.72,3.24,1.04,6.61,.93,10.06Z"/><path class="g" d="M257.01,377.22c-.3,10.03-4.08,19.14-10.17,26.19-8,9.27-19.94,15-33.14,14.61-2.85-.09-5.62-.45-8.29-1.07,2.17-11.83,5.08-23.42,8.68-34.68,3.46-10.83,7.54-21.39,12.21-31.62,1.99-4.35,4.08-8.65,6.28-12.87,2.88,1.31,5.57,2.95,8.04,4.85,5.85,4.53,10.46,10.53,13.28,17.44,2.17,5.28,3.28,11.08,3.1,17.15Z"/><path class="g" d="M730.57,324.2c-4.15,2.61-8.79,4.49-13.73,5.51-3.15,.66-6.43,.95-9.79,.86-1.47-.04-2.94-.16-4.35-.36-7.32-.97-14-3.8-19.6-8-8.41-6.3-14.38-15.68-16.22-26.41-.5-2.77-.72-5.62-.63-8.54,.07-2.45,.36-4.83,.82-7.16,1-4.98,2.9-9.65,5.5-13.8,1.56-2.52,3.38-4.87,5.44-6.98,3.56,3.26,7.04,6.61,10.4,10.06,3.71,3.74,7.29,7.61,10.76,11.57,.09,.09,.16,.18,.23,.27,8.18,9.33,15.77,19.19,22.7,29.54,2.94,4.4,5.76,8.88,8.47,13.44Z"/><path class="g" d="M758,386.86c-5.69,2.61-12.03,3.97-18.71,3.78-4.14-.13-8.11-.84-11.85-2.08-16.83-5.5-28.89-21.29-28.97-39.76,0-.48,0-.98,.02-1.47,.18-6.14,1.66-11.92,4.21-17.12,2.2-4.58,5.23-8.7,8.88-12.14,3.1-2.95,6.64-5.42,10.53-7.32,2.94,4.4,5.76,8.88,8.47,13.44,8.79,14.9,16.27,30.67,22.29,47.14,1.86,5.1,3.58,10.28,5.14,15.52Z"/><path class="g" d="M766.04,421.37c-2.85,1.68-6.02,2.85-9.42,3.35-1.59,.25-3.24,.36-4.91,.3-1.02-.04-2.02-.13-3.01-.27-8.4-1.18-15.49-6.21-19.5-13.21-.66-1.13-1.22-2.29-1.7-3.51-1.29-3.29-1.95-6.89-1.84-10.65,.09-3.12,.72-6.09,1.77-8.83,.43-1.11,.91-2.18,1.49-3.2,4.6-8.49,13.64-14.14,23.94-14.02,1.86,5.1,3.58,10.28,5.14,15.52,3.12,10.35,5.66,20.95,7.55,31.76,.18,.91,.32,1.84,.48,2.76Z"/><path class="g" d="M248.23,324.36c-.13,4.21-1.18,8.16-2.95,11.67-.29,.54-.57,1.07-.88,1.59-1.07,1.81-2.35,3.49-3.78,5.01-3.8,3.99-8.75,6.84-14.32,8.02,1.99-4.35,4.08-8.65,6.28-12.87,1.22-2.35,2.47-4.67,3.76-6.98,3.19-5.76,6.59-11.4,10.17-16.92,1.22,3.24,1.83,6.79,1.72,10.47Z"/><path class="g" d="M290.79,261.05c-.41,1.83-.98,3.58-1.74,5.25-2.04,4.62-5.32,8.54-9.38,11.4-1.11,.81-2.29,1.5-3.53,2.11-1.72,.88-3.56,1.58-5.46,2.06,2.13-2.43,4.3-4.83,6.52-7.2,0-.07,.02-.14,.05-.21,.02,.04,.04,.07,.05,.09,3.04-3.26,6.16-6.46,9.36-9.58,1.36-1.32,2.72-2.63,4.12-3.92Z"/><path class="g" d="M365.89,210.39c-.73,5.91-3.31,11.21-7.13,15.34-1.7,1.86-3.65,3.49-5.82,4.82-1.07,.66-2.2,1.27-3.37,1.77-1.86,.82-3.83,1.45-5.87,1.86-1.99,.38-4.05,.55-6.16,.48-3.76-.11-7.32-.97-10.54-2.42,5.68-3.81,11.48-7.41,17.44-10.8,.55-.32,1.11-.64,1.66-.95,6.45-3.62,13.03-7,19.78-10.11Z"/><path class="g" d="M518.58,186.11c-.18,.25-.36,.48-.56,.72-4.83,6.03-11.91,10.17-19.91,11.15-1.54,.2-3.13,.29-4.73,.23-.72-.02-1.41-.07-2.11-.14-7.77-.75-14.63-4.4-19.53-9.85-1.02-1.13-1.95-2.33-2.79-3.58,1.54-.09,3.08-.16,4.62-.21,3.9-.18,7.82-.25,11.76-.25,1.06,0,2.11,0,3.15,.02,3.4,.04,6.77,.13,10.13,.3,6.39,.27,12.73,.79,19.01,1.5,.3,.02,.63,.05,.95,.11Z"/><path class="g" d="M589.03,203.66c-2.6,2.43-5.68,4.37-9.08,5.66-3.31,1.25-6.91,1.88-10.65,1.77-2.29-.07-4.51-.41-6.62-1-.91-.25-1.83-.55-2.7-.9h-.02c-4.19-1.66-7.88-4.3-10.78-7.63-2.83-3.26-4.91-7.18-5.96-11.49,5.82,1.2,11.55,2.58,17.22,4.14,3.28,.88,6.5,1.83,9.72,2.83,6.39,1.99,12.68,4.21,18.87,6.62Z"/><path class="g" d="M699.4,281.21c-.11,0-.22-.02-.32-.02-6.66-.47-12.8-2.76-17.92-6.36-3.33-2.35-6.25-5.23-8.59-8.54-3.54-4.94-5.84-10.81-6.46-17.15-.02-.07-.02-.16-.02-.23,.07,.05,.13,.11,.2,.16,4.01,3.29,7.91,6.71,11.73,10.24,3.56,3.26,7.04,6.61,10.4,10.06,3.71,3.74,7.29,7.61,10.76,11.57,.09,.09,.16,.18,.23,.27Z"/><path class="g" d="M647.21,234.66c-1.56,.2-3.13,.27-4.74,.21-3.9-.11-7.61-.91-11.03-2.31-4.4-1.77-8.32-4.51-11.48-7.95-2.65-2.86-4.78-6.21-6.23-9.88,2.88,1.43,5.75,2.95,8.58,4.51,4.62,2.54,9.17,5.21,13.62,7.98,3.81,2.38,7.57,4.87,11.28,7.43Z"/><path class="g" d="M520.23,197.86c-.27,8.83-5.07,16.47-12.1,20.71-3.97,2.42-8.68,3.74-13.7,3.6-3.08-.09-6-.73-8.7-1.83-9.42-3.83-15.93-13.21-15.61-23.97,.09-2.86,.64-5.6,1.63-8.15,.48-1.32,1.11-2.6,1.83-3.8,3.9-.18,7.82-.25,11.76-.25,1.06,0,2.11,0,3.15,.02,3.4,.04,6.77,.13,10.13,.3,6.39,.27,12.73,.79,19.01,1.5,.14,.27,.29,.54,.39,.82,1.52,3.35,2.33,7.09,2.2,11.03Z"/><circle class="g" cx="426.54" cy="216.58" r="21.48"/><circle class="g" cx="359.1" cy="243.99" r="18.26"/><circle class="g" cx="253.43" cy="346.67" r="13.43"/><circle class="g" cx="562.37" cy="214.19" r="18.26"/><circle class="g" cx="698.89" cy="330.81" r="17.99"/><path class="g" d="M247.48,410.24c-.07,2.11-.36,4.15-.86,6.12-.63,2.38-1.54,4.64-2.74,6.73-.04,.09-.09,.18-.16,.27-2.67,4.62-6.66,8.38-11.44,10.8-1.38,.7-2.81,1.29-4.31,1.75-2.85,.88-5.89,1.31-9.02,1.22s-6.14-.7-8.92-1.75c-2.51-.93-4.83-2.22-6.93-3.81,.09-.72,.2-1.43,.29-2.15,.59-4.19,1.25-8.34,2.02-12.46,2.17-11.83,5.08-23.42,8.68-34.68,2.09-.43,4.26-.64,6.5-.57,3.62,.11,7.07,.91,10.2,2.27,8.07,3.49,14.13,10.71,16.04,19.44,.48,2.18,.72,4.48,.64,6.82Z"/><circle class="g" cx="413.73" cy="241.47" r="21.48"/><circle class="g" cx="449.53" cy="234.31" r="21.48"/><circle class="g" cx="476.39" cy="228.94" r="21.48"/><circle class="g" cx="535.47" cy="228.94" r="21.48"/><circle class="g" cx="342.12" cy="284.43" r="21.48"/><circle class="g" cx="231.12" cy="431.24" r="21.48"/><circle class="g" cx="256.18" cy="397.22" r="28.64"/><circle class="g" cx="272.3" cy="352.46" r="28.64"/><circle class="g" cx="319.82" cy="328.23" r="34.99"/><circle class="g" cx="611.14" cy="257.27" r="24.58"/><circle class="g" cx="640.93" cy="291.94" r="28.48"/><circle class="g" cx="687.44" cy="354.21" r="23.27"/><circle class="g" cx="674.91" cy="316.61" r="23.27"/><circle class="g" cx="378.08" cy="266.55" r="28.48"/><circle class="g" cx="566.06" cy="248.65" r="28.48"/><circle class="g" cx="514.14" cy="237.91" r="28.48"/><circle class="g" cx="455.61" cy="265.75" r="28.48"/><circle class="g" cx="497.36" cy="259.19" r="28.48"/><circle class="g" cx="543.19" cy="272.45" r="34.58"/><circle class="g" cx="594.21" cy="293.03" r="37.26"/><circle class="g" cx="426.09" cy="291.75" r="43.14"/><circle class="g" cx="484.83" cy="291.41" r="28.48"/><circle class="g" cx="364.88" cy="303.95" r="23.1"/><path class="g" d="M237.65,458.14c-.11,3.4-.81,6.66-1.99,9.65-1.47,3.72-3.69,7.04-6.5,9.79-3.28,3.26-7.38,5.69-11.92,7.04-2.81,.82-5.82,1.24-8.92,1.15-2.51-.07-4.92-.47-7.21-1.15-.04-.54-.05-1.07-.07-1.61-.23-4.69-.36-9.42-.36-14.18,0-12.64,.82-25.08,2.42-37.27,.09-.72,.2-1.43,.29-2.15,2.06-.43,4.21-.63,6.39-.57h.25c6.89,.21,13.14,2.85,17.94,7.07,.82,.72,1.61,1.47,2.33,2.29,2.24,2.45,4.03,5.3,5.3,8.41,.68,1.66,1.2,3.42,1.56,5.25,.39,2.02,.57,4.14,.5,6.28Z"/><circle class="g" cx="247.83" cy="436.16" r="28.48"/><path class="g" d="M237.53,494.34c-.07,2.49-.61,4.85-1.5,7.02-3.06,7.38-10.44,12.48-18.91,12.23-5.48-.18-10.38-2.54-13.84-6.25-1.02-7.48-1.75-15.06-2.17-22.72-.04-.54-.05-1.07-.07-1.61,3.1-4.8,8.22-8.16,14.13-8.92,1.02-.14,2.06-.2,3.12-.16,4.06,.13,7.81,1.45,10.88,3.65,5.23,3.71,8.56,9.86,8.36,16.76Z"/><circle class="g" cx="710.92" cy="393.37" r="28.48"/><circle class="g" cx="730.61" cy="436.34" r="28.48"/><path class="g" d="M769.99,468.83c0,2.17-.02,4.35-.07,6.5-1.43,.2-2.88,.25-4.35,.21-.05,0-.13,0-.18-.02-.47-.02-.93-.04-1.38-.09-2.11-.16-4.15-.57-6.09-1.18-6.53-2.02-12.01-6.32-15.59-11.96-2.94-4.64-4.57-10.17-4.39-16.06,.07-2.08,.36-4.1,.84-6.03,0-.04,.02-.05,.02-.09,1.54-6.18,5.1-11.53,9.9-15.36,1.83-1.45,3.85-2.67,6-3.63,3.33-1.52,7-2.4,10.85-2.51,.18,.91,.32,1.84,.48,2.76,2.24,13.23,3.54,26.8,3.87,40.59,.05,2.29,.09,4.58,.09,6.87Z"/><path class="g" d="M770.39,470.62v1.4c-.02,1.7-.04,3.42-.07,5.1,0,.47-.02,.93-.04,1.4-4.39,5.5-10.63,9.43-17.81,10.85-1.84,.36-3.76,.55-5.71,.55-1.09,0-2.15-.04-3.22-.14-12.82-1.27-23.29-10.54-26.33-22.81-.41-1.63-.7-3.31-.82-5.05-.02-.3-.04-.61-.05-.93v-.02c-.02-.39-.02-.77-.04-1.18-.09-15.54,11.53-28.41,26.6-30.24,.39-.04,.77-.07,1.16-.11,.79-.07,1.58-.11,2.36-.11,4.01-.02,7.86,.72,11.37,2.15,.32,.13,.64,.27,.97,.41,3.33,1.43,6.34,3.46,8.9,5.94,.16,.16,.3,.32,.47,.47,.39,2.85,.75,5.71,1.04,8.58,0,.04,.02,.09,.02,.13,.3,2.72,.55,5.44,.79,8.2v.07c.16,2.81,.27,5.64,.34,8.47,.05,2.29,.09,4.58,.09,6.87Z"/><circle class="g" cx="243.66" cy="473.93" r="28.48"/><path class="g" d="M770.39,472.02c-.02,1.7-.04,3.42-.07,5.1,0,.47-.02,.93-.04,1.4-.02,.66-.04,1.32-.07,1.99-.14,4.3-.38,8.56-.72,12.8-.38,4.73-.86,9.42-1.45,14.07-1.92,.61-3.99,.9-6.12,.84-5.96-.18-11.19-3.1-14.54-7.5-2.33-3.06-3.74-6.84-3.85-10.94-.04-.36-.04-.72-.02-1.09,.16-5.42,2.6-10.26,6.36-13.62,1.13-.98,2.36-1.86,3.71-2.58h.02c2.81-1.49,6.03-2.29,9.43-2.18,2.47,.07,4.82,.61,6.95,1.54,.14,.05,.29,.13,.41,.18Z"/><circle class="g" cx="729.82" cy="486.06" r="22.87"/><circle class="g" cx="285.47" cy="384.79" r="13.68"/><circle class="g" cx="305.63" cy="371.21" r="15"/><circle class="g" cx="628.77" cy="327.35" r="15.9"/><circle class="g" cx="656.91" cy="327.86" r="18.97"/><circle class="g" cx="662.28" cy="360.08" r="18.97"/><circle class="g" cx="643.1" cy="348.83" r="15.9"/><circle class="g" cx="678.39" cy="390.52" r="18.97"/><circle class="g" cx="277.09" cy="406.05" r="18.97"/></g><circle class="h" cx="491.55" cy="524.2" r="24.12"/><circle cx="398" cy="455.58" r="18.1"/><path class="d" d="M371.28,415.92c4.46-2.36,14.28-6.81,27.47-6.58,13.13,.23,22.76,4.97,27.14,7.48"/><g><rect class="e" x="335.75" y="391.77" width="124.42" height="119.13" rx="15.24" ry="15.24"/><rect class="e" x="524.82" y="394.79" width="124.42" height="119.13" rx="15.24" ry="15.24"/><path class="c" d="M459.42,439.38c5.3-2.81,16.97-8.09,32.63-7.82,15.6,.27,27.04,5.9,32.24,8.88"/><path class="c" d="M649.7,443.27c9.04-3.38,20-6.42,32.63-7.82,40.53-4.49,72.76,10.72,87.56,19.06"/><path class="c" d="M335.26,439.41c-9.3-3.39-20.23-6.34-32.63-7.82-46.37-5.54-83.53,13.02-100.25,22.92"/></g><line class="f" x1="392.58" y1="346.62" x2="581" y2="346.62"/></g></svg>