<?xml version="1.0" encoding="UTF-8"?><svg id="a" xmlns="http://www.w3.org/2000/svg" xmlns:xlink="http://www.w3.org/1999/xlink" viewBox="0 0 1900.7 560.64"><defs><style>.c{fill:url(#b);}.d{fill:#fcfcf5;font-family:SourceCodePro-SemiBoldItalic, Source Code Pro;font-size:167px;letter-spacing:.1em;}</style><linearGradient id="b" x1="37.25" y1="190.29" x2="1938.58" y2="190.29" gradientTransform="translate(-38.06 106.95) rotate(-.97)" gradientUnits="userSpaceOnUse"><stop offset="0" stop-color="#f29325"/><stop offset="1" stop-color="#e50756"/></linearGradient></defs><path class="c" d="M1519.67,521.29c-435.85,13.12-871.69,26.23-1307.54,39.35-35.7-21.05-71.4-42.11-107.1-63.16C70.02,382.93,35.01,268.38,0,153.83c56.65-31.75,113.3-63.49,169.96-95.24C681.32,39.06,1192.68,19.53,1704.04,0c65.56,33.66,131.11,67.31,196.67,100.97-31.37,99.53-62.74,199.06-94.1,298.58-8.7,22.05-17.39,44.1-26.09,66.14-86.95,18.53-173.9,37.06-260.84,55.59Z"/><text class="d" transform="translate(260.22 366.96) rotate(-2.29)"><tspan x="0" y="0">Angel Rafael</tspan></text></svg>