<?xml version="1.0" encoding="UTF-8"?><svg id="a" xmlns="http://www.w3.org/2000/svg" xmlns:xlink="http://www.w3.org/1999/xlink" viewBox="0 0 1900.7 570.05"><defs><style>.c{fill:#fff;font-family:SourceCodePro-SemiBoldItalic, Source Code Pro;font-size:167px;letter-spacing:.1em;}.d{fill:url(#b);}</style><linearGradient id="b" x1="0" y1="289.74" x2="1900.7" y2="289.74" gradientTransform="matrix(1, 0, 0, 1, 0, 0)" gradientUnits="userSpaceOnUse"><stop offset="0" stop-color="#012840"/><stop offset="1" stop-color="#05f2db"/></linearGradient></defs><path class="d" d="M1519.67,530.71c-435.85,13.12-871.69,26.23-1307.54,39.35-35.7-21.05-71.4-42.11-107.1-63.16C70.02,392.34,35.01,277.8,0,163.25c56.65-31.75,113.3-63.49,169.96-95.24C681.32,48.48,1192.68,28.95,1704.04,9.42c65.56,33.66,131.11,67.31,196.67,100.97-31.37,99.53-62.74,199.06-94.1,298.58-8.7,22.05-17.39,44.1-26.09,66.14-86.95,18.53-173.9,37.06-260.84,55.59Z"/><text class="c" transform="translate(260.33 356.28) rotate(-2.29)"><tspan x="0" y="0">Angel Rafael</tspan></text></svg>